<?xml version="1.0" encoding="utf-8"?>
<!-- Generator: Adobe Illustrator 25.1.0, SVG Export Plug-In . SVG Version: 6.00 Build 0)  -->
<svg version="1.1" id="Layer_1" xmlns="http://www.w3.org/2000/svg" xmlns:xlink="http://www.w3.org/1999/xlink" x="0px" y="0px"
	 viewBox="0 0 1500 427" style="enable-background:new 0 0 1500 427;" xml:space="preserve">
<style type="text/css">
	.st0{fill:#00AEEF;}
	.st1{fill:#80888F;}
</style>
<g>
	<path class="st0" d="M338,93.4c0-2.9-2.1-5.3-4.9-5.7H109.9c-2.8,0.4-4.9,2.8-4.9,5.7v118.9c0,13.6,2,26.5,6.5,38.4l226.5-127V93.4
		z"/>
	<path class="st0" d="M221.5,343.3c29,0,116.3-52.9,116.3-130.9v-40.2l-225,83.2C134.6,307.6,197.7,343.3,221.5,343.3"/>
</g>
<polygon class="st1" points="416.5,132.7 448.2,132.7 448.2,253.2 507.8,253.2 507.8,281.2 416.5,281.2 "/>
<g>
	<path class="st1" d="M598.9,227.8c0-16.4-13.7-27.4-27.6-27.4c-15.1,0-27.6,11.6-27.6,27.4c0,15.5,12.6,27.6,27.6,27.6
		C585.9,255.4,598.9,244,598.9,227.8 M629.7,174.9v106.4h-29.9V268c-7.5,10.5-22.4,15.3-34.2,15.3c-27.4,0-52.3-21.2-52.3-55.5
		s24.9-55.5,52.3-55.5c12.3,0,26.7,4.6,34.2,15.3v-12.8h29.9V174.9z"/>
	<path class="st1" d="M643.1,227.6c0-33.8,27.4-55.5,58.4-55.5c19.4,0,34.9,9.1,45,22.8l-22.4,15.7c-4.8-6.6-13.7-10.7-22.4-10.7
		c-16.9,0-28.3,12.1-28.3,27.6c0,15.7,11.4,27.9,28.3,27.9c8.7,0,17.6-4.1,22.4-10.7l22.4,15.7c-10,13.9-25.6,22.8-45,22.8
		C670.5,283.3,643.1,261.4,643.1,227.6"/>
	<path class="st1" d="M835.8,218.2c-0.9-12.6-11.4-20.1-24.9-20.1c-12.1,0-22.8,5.7-26,20.1H835.8z M865.3,237.6h-80.4
		c3.2,12.3,13.2,19.2,27.6,19.2c10.7,0,21.5-4.3,27.9-11.9l17.6,17.6c-10,13.5-28.8,20.8-47.5,20.8c-32.6,0-56.6-22.4-56.6-55.2
		c0-34.5,26-55.9,56.6-55.9c30.4,0,55.2,21.5,55.2,54.1C865.7,229.2,865.5,232.8,865.3,237.6"/>
</g>
<polygon class="st1" points="1038.3,174.9 1000.6,281.2 975.1,281.2 953.2,212.1 931.9,281.2 906.4,281.2 867.5,174.9 900,174.9 
	920,239.7 940.4,174.9 965.5,174.9 985.8,239.7 1005.9,174.9 "/>
<g>
	<path class="st1" d="M1120.9,227.8c0-16.7-12.1-27.9-26.9-27.9s-26.9,11.2-26.9,27.9c0,16.4,12.1,27.6,26.9,27.6
		C1108.8,255.4,1120.9,244.3,1120.9,227.8 M1036.6,227.8c0-33.8,26.9-55.7,57.3-55.7s57.3,21.9,57.3,55.7
		c0,33.6-26.9,55.5-57.3,55.5S1036.6,261.4,1036.6,227.8"/>
	<path class="st1" d="M1242.5,175.5l-6.9,28.5c-6.4-3.4-11.6-3.9-15.3-3.9c-15.3,0-25.8,14.2-25.8,44.5v36.5h-29.9V174.9h29.7v22.6
		c5.9-17.8,18-25.3,31.3-25.3C1231.3,172.1,1237.7,173,1242.5,175.5"/>
</g>
<polygon class="st1" points="1322.5,281.2 1285.1,235.1 1285.1,281.2 1255.2,281.2 1255.2,126.8 1285.1,126.8 1285.1,207.3 
	1312,174.9 1350.4,174.9 1308.8,221.7 1359.8,281.2 "/>
<g>
	<path class="st1" d="M1349.7,134.9c0-1.7,0.4-3.3,1.2-4.8c0.8-1.5,1.9-2.6,3.3-3.5c1.4-0.8,2.9-1.3,4.5-1.3s3.1,0.4,4.5,1.3
		s2.5,2,3.3,3.5c0.8,1.5,1.2,3.1,1.2,4.8c0,1.7-0.4,3.2-1.1,4.7s-1.8,2.6-3.2,3.5c-1.4,0.9-2.9,1.3-4.6,1.3c-1.7,0-3.2-0.4-4.6-1.3
		c-1.4-0.9-2.5-2-3.3-3.5S1349.7,136.6,1349.7,134.9z M1351.2,134.9c0,1.5,0.3,2.8,1,4c0.7,1.2,1.6,2.2,2.8,2.9
		c1.2,0.7,2.4,1.1,3.8,1.1c1.4,0,2.6-0.4,3.8-1.1s2.1-1.7,2.7-2.9c0.7-1.2,1-2.6,1-4c0-1.4-0.3-2.8-1-4c-0.7-1.2-1.6-2.2-2.7-2.9
		c-1.2-0.7-2.4-1.1-3.8-1.1c-1.4,0-2.6,0.3-3.8,1c-1.2,0.7-2.1,1.7-2.8,2.9C1351.5,132.2,1351.2,133.5,1351.2,134.9z M1356.9,135.9
		v4.3h-1.8v-10.8h3.5c1.3,0,2.3,0.3,3,0.8c0.7,0.6,1.1,1.4,1.1,2.4c0,1-0.5,1.8-1.6,2.4c1,0.4,1.6,1.3,1.6,2.6v0.8
		c0,0.7,0.1,1.3,0.2,1.6v0.2h-1.8c-0.1-0.3-0.2-0.8-0.2-1.6s0-1.2,0-1.4c-0.1-0.8-0.7-1.2-1.7-1.3H1356.9z M1356.9,134.3h2
		c0.6,0,1.1-0.2,1.5-0.4c0.4-0.3,0.6-0.6,0.6-1.1c0-0.6-0.2-1.1-0.5-1.3c-0.3-0.3-0.9-0.4-1.8-0.4h-1.8V134.3z"/>
</g>
</svg>
